# xmcd CD database file
#
# Track frame offsets:
#	150
#	10665
#	28503
#	45827
#	61948
#	79104
#	98473
#	113695
#	130698
#	142248
#	159322
#	179224
#
# Disc length: 2641 seconds
#
# Revision: 0
# Processed by: cddbd v1.5PL3 Copyright (c) Steve Scherf et al.
# Submitted via: CDex 1.50
#
DISCID=8d0a4f0c
DTITLE=John Sawyer - Ropin' The Hits (A Tribute To Garth Brooks)
DYEAR=1998
DGENRE=Country
TTITLE0=Longneck Bottle
TTITLE1=Ain't Going Down Till The Sun Comes Up
TTITLE2=If Tomorrow Never Comes
TTITLE3=In Another's Eyes
TTITLE4=The Red Strokes
TTITLE5=Friends In Low Places
TTITLE6=Unanswered Prayers
TTITLE7=The Dance
TTITLE8=Two Of A Kind
TTITLE9=Standing Outside The Fire
TTITLE10=Shameless
TTITLE11=The Beaches Of Cheyenne
EXTD=YEAR: 1998
EXTT0=
EXTT1=
EXTT2=
EXTT3=
EXTT4=
EXTT5=
EXTT6=
EXTT7=
EXTT8=
EXTT9=
EXTT10=
EXTT11=
PLAYORDER=
